<svg width="1322" height="1771" viewBox="0 0 1322 1771" fill="none" xmlns="http://www.w3.org/2000/svg">
<path d="M660.999 0L9.79405e-06 660.113L264.4 846.84L661 450.772L660.999 0Z" fill="#F53E01"/>
<path d="M9.79405e-06 660.113L0 1110.89L264.4 846.84L9.79405e-06 660.113Z" fill="#F53E01"/>
<path fill-rule="evenodd" clip-rule="evenodd" d="M661 1771L0 1110.89L264.4 846.84L661 450.772L1096.31 885.498L660.996 1320.22L661 1771Z" fill="#C23000"/>
<path d="M661 1771L1322 1110.89L1096.31 885.498L660.996 1320.22L661 1771Z" fill="#C23000"/>
<path d="M1322 660.113L660.999 0L661 450.772L1096.31 885.498L1322 1110.89L1322 660.113Z" fill="#751D00"/>
<path d="M238.003 1116.12L173.791 1052.66L617.469 604.947L681.68 668.41L495.659 856.123L1029.2 1383.44L957.564 1455.72L424.024 928.41L238.003 1116.12Z" fill="#F7754A"/>
<path d="M1201.42 615.368C1229.7 662.558 1244.7 700.504 1246.4 729.208C1248.1 757.912 1238.06 776.644 1216.27 785.403C1194.49 794.162 1162.44 792.195 1120.12 779.502C1077.79 766.808 1034.57 746.198 990.44 717.672C946.312 689.146 904.498 654.862 864.997 614.821C825.496 574.78 791.604 531.165 763.322 483.976C735.04 436.786 720.048 398.84 718.348 370.136C716.648 341.432 726.688 322.7 748.469 313.941C770.251 305.182 802.303 307.149 844.627 319.843C886.951 332.536 930.176 353.146 974.304 381.672C1018.43 410.198 1060.25 444.482 1099.75 484.523C1139.25 524.564 1173.14 568.179 1201.42 615.368ZM1143.27 597.927C1120.05 559.185 1093.26 524.332 1062.91 493.366C1032.72 462.45 1001.33 436.488 968.729 415.482C936.292 394.524 905.051 379.539 875.004 370.527C844.957 361.516 821.84 360.198 805.653 366.573C789.627 372.996 782.413 387.378 784.01 409.72C785.769 432.11 798.257 462.675 821.477 501.417C844.696 540.159 871.401 574.988 901.591 605.905C931.942 636.87 963.336 662.832 995.773 683.79C1028.37 704.796 1059.69 719.805 1089.74 728.817C1119.79 737.828 1142.82 739.122 1158.85 732.699C1175.04 726.324 1182.25 711.942 1180.49 689.552C1178.89 667.21 1166.49 636.669 1143.27 597.927Z" fill="#F7754A"/>
<path d="M253.472 484.778C231.961 506.188 213.058 533.317 196.761 566.167C180.464 599.016 168.842 631.998 161.895 665.113C156.815 689.327 155.387 707.878 157.609 720.768C159.869 733.48 165.212 740.299 173.639 741.225C182.103 741.973 193.053 736.478 206.488 724.74C217.73 714.919 228.123 703.004 237.668 688.994C247.114 674.926 255.668 660.037 263.33 644.328C270.855 628.738 277.602 613.393 283.569 598.292C289.399 583.311 294.407 569.848 298.592 557.904L321.761 492.295C327.628 475.537 334.928 456.219 343.661 434.339C352.431 412.282 362.884 389.409 375.019 365.721C387.055 341.974 400.961 318.92 416.737 296.558C432.513 274.197 450.271 254.393 470.013 237.146C492.77 217.264 511.709 207.043 526.83 206.483C541.988 205.746 551.882 215.423 556.512 235.515C561.18 255.43 559.106 286.395 550.291 328.412C542.074 367.58 530.092 405.748 514.345 442.916C498.635 479.906 480.357 514.196 459.51 545.786C438.7 577.198 416.555 604.033 393.076 626.291L407.418 557.924C423.694 542.251 438.312 523.809 451.271 502.6C464.13 481.333 475.057 459.137 484.051 436.011C492.946 412.828 499.671 390.375 504.228 368.655C509.532 343.373 511.141 323.428 509.055 308.82C506.833 294.33 501.265 286.181 492.351 284.371C483.301 282.682 471.098 288.544 455.744 301.958C441.76 314.175 429.317 329.189 418.414 347.003C407.511 364.816 397.581 384.397 388.624 405.745C379.666 427.094 371.114 449.178 362.968 471.999L334.043 552.233C315.62 603.226 295.019 648.85 272.242 689.106C249.465 729.362 223.888 761.886 195.51 786.678C171.93 807.278 153.103 816.965 139.029 815.738C124.855 814.453 115.852 803.997 112.019 784.371C108.088 764.686 109.782 737.396 117.103 702.501C124.498 667.249 135.939 631.663 151.424 595.742C166.773 559.94 184.491 526.722 204.578 496.086C224.702 465.273 245.482 440.139 266.918 420.685L253.472 484.778Z" fill="#F7754A"/>
</svg>
